<svg width="183" height="169" viewBox="0 0 183 169" fill="none" xmlns="http://www.w3.org/2000/svg">
<path d="M147.496 50.1728C147.415 50.1298 147.332 50.0885 147.251 50.0455C147.254 49.9537 147.26 49.861 147.263 49.7696C147.943 30.4927 141.966 16.2099 130.433 9.55167C118.9 2.89303 103.543 4.85833 87.1883 15.0857C87.1103 15.1342 87.0332 15.1855 86.9552 15.2348C86.8777 15.1859 86.8002 15.1346 86.7222 15.0857C70.3679 4.85873 55.0102 2.89343 43.4772 9.55167C31.9447 16.2099 25.9677 30.4931 26.6473 49.7696C26.6505 49.861 26.6564 49.9541 26.6596 50.0455C26.5785 50.0885 26.4954 50.1298 26.4143 50.1728C9.38111 59.2226 0 71.5402 0 84.8571C0 98.174 9.38111 110.491 26.4151 119.541C26.4962 119.584 26.5793 119.626 26.6604 119.669C26.6568 119.76 26.6513 119.853 26.6481 119.945C25.9685 139.221 31.9455 153.505 43.478 160.163C47.9678 162.755 53.0345 164.04 58.5164 164.04C67.1165 164.039 76.735 160.875 86.723 154.629C86.8009 154.58 86.8781 154.529 86.956 154.48C87.0336 154.529 87.1111 154.58 87.1891 154.629C97.1778 160.876 106.794 164.04 115.395 164.04C120.876 164.04 125.945 162.755 130.434 160.163C141.966 153.505 147.944 139.221 147.264 119.945C147.26 119.853 147.254 119.76 147.251 119.669C147.332 119.626 147.415 119.584 147.497 119.541C164.531 110.492 173.912 98.174 173.912 84.8571C173.912 71.5402 164.53 59.2226 147.496 50.1728ZM121.69 104.911C117.875 111.519 113.663 117.699 109.169 123.332C102.044 124.407 94.5854 124.965 86.9556 124.965C79.3259 124.965 71.8671 124.407 64.742 123.332C60.2487 117.699 56.0361 111.519 52.2213 104.911C48.4064 98.3032 45.1602 91.5646 42.5284 84.8571C45.1606 78.1491 48.4064 71.4109 52.2213 64.8032C56.0361 58.1955 60.2491 52.0152 64.742 46.3818C71.8671 45.3073 79.3255 44.7493 86.9556 44.7493C94.5858 44.7493 102.044 45.3077 109.169 46.3818C113.663 52.0152 117.875 58.1955 121.69 64.8032C125.505 71.4109 128.751 78.1491 131.383 84.8571C128.751 91.565 125.505 98.3032 121.69 104.911ZM135.222 96.0913C137.088 102.516 138.345 108.826 138.948 114.875C133.408 117.377 127.315 119.443 120.818 121.039C123.545 117.168 126.141 113.109 128.578 108.887C131.015 104.666 133.232 100.389 135.222 96.0913ZM86.9556 144.893C82.0185 141.346 77.1828 137.102 72.5519 132.274C77.2679 132.7 82.0818 132.918 86.9556 132.918C91.8295 132.918 96.6434 132.7 101.359 132.274C96.7285 137.102 91.8928 141.346 86.9556 144.893ZM53.0934 121.04C46.5966 119.443 40.5034 117.378 34.9634 114.875C35.5663 108.826 36.8238 102.516 38.6896 96.0917C40.6792 100.389 42.8966 104.667 45.3336 108.888C47.7705 113.109 50.3669 117.168 53.0934 121.04ZM45.3336 60.8265C42.8966 65.0474 40.6792 69.3255 38.6896 73.6228C36.8238 67.198 35.5663 60.8881 34.9634 54.8395C40.5034 52.3373 46.5966 50.2714 53.0934 48.6748C50.3669 52.5461 47.7705 56.6056 45.3336 60.8265ZM86.9556 24.8215C91.8928 28.368 96.7285 32.6119 101.359 37.4401C96.643 37.0146 91.8295 36.7959 86.9556 36.7959C82.0818 36.7959 77.2683 37.0146 72.5519 37.4401C77.1832 32.6119 82.0189 28.3684 86.9556 24.8215ZM128.578 60.8265C126.141 56.6056 123.545 52.5461 120.818 48.6744C127.315 50.271 133.408 52.3365 138.948 54.8391C138.345 60.8881 137.088 67.198 135.222 73.6224C133.232 69.3255 131.015 65.0474 128.578 60.8265ZM115.354 13.629C119.463 13.629 123.202 14.56 126.457 16.4394C134.736 21.2198 139.266 31.7796 139.36 46.3539C131.502 43.1022 122.742 40.633 113.42 39.0193C107.363 31.7546 100.846 25.4037 94.1018 20.2248C101.789 15.8536 109.013 13.629 115.354 13.629ZM47.4548 16.4394C50.7101 14.56 54.4478 13.629 58.557 13.629C64.8983 13.629 72.1232 15.854 79.8094 20.2248C73.0657 25.4037 66.5482 31.7546 60.4913 39.0193C51.1698 40.633 42.4095 43.1022 34.5514 46.3539C34.6461 31.7796 39.1748 21.2198 47.4548 16.4394ZM7.95347 84.8571C7.95347 75.2962 14.8344 66.094 27.4084 58.7256C28.5215 67.1566 30.7632 75.9778 34.0265 84.8571C30.7632 93.7367 28.5215 102.558 27.4084 110.989C14.8344 103.62 7.95347 94.4179 7.95347 84.8571ZM47.4548 153.275C39.1748 148.495 34.6461 137.935 34.5518 123.361C42.4099 126.612 51.1698 129.082 60.4917 130.695C66.5498 137.961 73.0681 144.313 79.8134 149.493C67.144 156.698 55.7339 158.056 47.4548 153.275ZM126.457 153.275C118.177 158.056 106.767 156.698 94.0986 149.493C100.844 144.313 107.362 137.961 113.42 130.695C122.742 129.082 131.502 126.612 139.36 123.361C139.266 137.935 134.737 148.495 126.457 153.275ZM146.503 110.989C145.39 102.558 143.148 93.7367 139.885 84.8571C143.148 75.9774 145.39 67.1566 146.503 58.7252C159.077 66.0941 165.958 75.2958 165.958 84.8567C165.958 94.4175 159.077 103.62 146.503 110.989Z" fill="white"/>
<path d="M169.935 97.8523C177.112 97.8523 182.93 92.0341 182.93 84.8571C182.93 77.6801 177.112 71.8619 169.935 71.8619C162.758 71.8619 156.939 77.6801 156.939 84.8571C156.939 92.0341 162.758 97.8523 169.935 97.8523Z" fill="#ABCB57"/>
<path d="M45.8787 169C53.0557 169 58.8739 163.182 58.8739 156.005C58.8739 148.828 53.0557 143.01 45.8787 143.01C38.7017 143.01 32.8835 148.828 32.8835 156.005C32.8835 163.182 38.7017 169 45.8787 169Z" fill="#E5C400"/>
<path d="M45.4664 25.9903C52.6434 25.9903 58.4615 20.1722 58.4615 12.9952C58.4615 5.81814 52.6434 0 45.4664 0C38.2893 0 32.4712 5.81814 32.4712 12.9952C32.4712 20.1722 38.2893 25.9903 45.4664 25.9903Z" fill="#C8523B"/>
<path d="M86.6927 97.8929C93.8697 97.8929 99.6878 92.0748 99.6878 84.8978C99.6878 77.7207 93.8697 71.9026 86.6927 71.9026C79.5156 71.9026 73.6975 77.7207 73.6975 84.8978C73.6975 92.0748 79.5156 97.8929 86.6927 97.8929Z" fill="#808083"/>
</svg>
