<svg width="20" height="12" viewBox="0 0 20 12" fill="none" xmlns="http://www.w3.org/2000/svg">
<path d="M19.7479 2.53328C19.887 2.53328 20.0006 2.41102 20.0006 2.27383V0.926108C20.0006 0.783314 19.8933 0.666656 19.7479 0.666656H0.253443C0.114359 0.666656 0.000732422 0.788917 0.000732422 0.926108V2.27383C0.000732422 2.41662 0.108019 2.53328 0.253443 2.53328H19.7479Z" fill="#662482"/>
<path d="M0 6.94058C0 7.08337 0.107287 7.20003 0.25271 7.20003H19.7471C19.8862 7.20003 19.9998 7.07773 19.9998 6.94058V5.59286C19.9998 5.44912 19.8925 5.3334 19.7471 5.3334H0.25271C0.113627 5.3334 0 5.4557 0 5.59286V6.94058Z" fill="#662482"/>
<path d="M0 11.6072C0 11.75 0.107287 11.8666 0.25271 11.8666H19.7471C19.8862 11.8666 19.9998 11.7443 19.9998 11.6072V10.2594C19.9998 10.1167 19.8925 10 19.7471 10H0.25271C0.113627 10 0 10.1223 0 10.2594V11.6072Z" fill="#662482"/>
</svg>
