<svg width="146" height="138" viewBox="0 0 146 138" fill="none" xmlns="http://www.w3.org/2000/svg">
<path d="M138.487 133.4H30.6744C19.0833 133.4 9.68689 124.004 9.68689 112.413V108.388C9.68689 96.7964 19.0833 87.4 30.6744 87.4H138.487V133.4Z" fill="#FFEBB7"/>
<path d="M25.7869 92H14.2869V128.8H25.7869V92Z" fill="#5C546A"/>
<path d="M127.562 80.5H5.08691V48.3H127.562C131.055 48.3 133.887 51.1319 133.887 54.625V74.175C133.887 77.6682 131.055 80.5 127.562 80.5Z" fill="#FFEBB7"/>
<path d="M138.487 6.90002H21.1869V41.4H138.487V6.90002Z" fill="#FFEBB7"/>
<path d="M138.55 138H32.7498C17.5313 138 5.14978 125.62 5.14978 110.4C5.14978 95.1804 17.5313 82.8 32.7498 82.8H138.55C141.09 82.8 143.15 84.8597 143.15 87.4C143.15 89.9404 141.09 92 138.55 92H32.7498C22.6042 92 14.3498 100.254 14.3498 110.4C14.3498 120.546 22.6042 128.8 32.7498 128.8H138.55C141.09 128.8 143.15 130.86 143.15 133.4C143.15 135.94 141.09 138 138.55 138Z" fill="#00C37A"/>
<path d="M124.75 82.8H2.8498C1.57848 82.8 0.549805 81.7713 0.549805 80.5C0.549805 79.2287 1.57848 78.2 2.8498 78.2H124.75C128.555 78.2 131.65 75.1048 131.65 71.3V57.5C131.65 53.6952 128.555 50.6 124.75 50.6H2.8498C1.57848 50.6 0.549805 49.5713 0.549805 48.3C0.549805 47.0287 1.57848 46 2.8498 46H124.75C131.091 46 136.25 51.1592 136.25 57.5V71.3C136.25 77.6408 131.091 82.8 124.75 82.8Z" fill="#009BCA"/>
<path d="M138.487 18.4H32.6868C31.4167 18.4 30.3868 17.3702 30.3868 16.1C30.3868 14.8299 31.4167 13.8 32.6868 13.8H138.487V18.4Z" fill="#E6BE94"/>
<path d="M138.487 27.6H32.6868C31.4167 27.6 30.3868 26.5702 30.3868 25.3C30.3868 24.0298 31.4167 23 32.6868 23H138.487V27.6Z" fill="#E6BE94"/>
<path d="M138.487 36.8001H32.6868C31.4167 36.8001 30.3868 35.7702 30.3868 34.5001C30.3868 33.2299 31.4167 32.2001 32.6868 32.2001H138.487V36.8001Z" fill="#E6BE94"/>
<path d="M5.08691 55.2H124.687C125.957 55.2 126.987 56.2298 126.987 57.5C126.987 58.7701 125.957 59.8 124.687 59.8H5.08691C5.08691 59.8 5.08691 55.2 5.08691 55.2Z" fill="#E6BE94"/>
<path d="M5.08691 64.3999H124.687C125.957 64.3999 126.987 65.4297 126.987 66.6999C126.987 67.9701 125.957 68.9999 124.687 68.9999H5.08691C5.08691 68.9999 5.08691 64.3999 5.08691 64.3999Z" fill="#E6BE94"/>
<path d="M5.08691 73.6001H124.687C125.957 73.6001 126.987 74.6299 126.987 75.9001C126.987 77.1703 125.957 78.2001 124.687 78.2001H5.08691C5.08691 78.2001 5.08691 73.6001 5.08691 73.6001Z" fill="#E6BE94"/>
<path d="M140.85 46H30.4498C22.8399 46 16.6498 39.8098 16.6498 32.2V13.8C16.6498 6.19016 22.8399 0 30.4498 0H140.85C143.39 0 145.45 2.05965 145.45 4.6C145.45 7.14035 143.39 9.2 140.85 9.2H30.4498C27.9129 9.2 25.8498 11.2631 25.8498 13.8V32.2C25.8498 34.7357 27.9129 36.8 30.4498 36.8H140.85C143.39 36.8 145.45 38.8596 145.45 41.4C145.45 43.9403 143.39 46 140.85 46Z" fill="#FF4F19"/>
<path d="M32.6868 124.2C31.4155 124.2 30.3868 125.229 30.3868 126.5C30.3868 127.771 31.4155 128.8 32.6868 128.8H138.487V124.2H32.6868Z" fill="#E6BE94"/>
<path d="M32.6868 115C31.4155 115 30.3868 116.029 30.3868 117.3C30.3868 118.571 31.4155 119.6 32.6868 119.6H138.487V115H32.6868Z" fill="#E6BE94"/>
<path d="M32.6868 105.8C31.4155 105.8 30.3868 106.829 30.3868 108.1C30.3868 109.371 31.4155 110.4 32.6868 110.4H138.487V105.8H32.6868Z" fill="#E6BE94"/>
<path d="M32.6868 96.6C31.4155 96.6 30.3868 97.6287 30.3868 98.9C30.3868 100.171 31.4155 101.2 32.6868 101.2H138.487V96.6H32.6868Z" fill="#E6BE94"/>
</svg>
