<svg width="148" height="191" viewBox="0 0 148 191" fill="none" xmlns="http://www.w3.org/2000/svg">
<path d="M103.538 15.0136C129.594 26.7014 147.807 53.4411 147.807 84.5599C147.807 96.1803 145.216 107.164 140.729 117.031C132.31 135.542 112.441 155.025 112.441 155.025C98.8045 169.507 82.91 184.318 76.7473 189.979C75.2613 191.345 72.9799 191.34 71.5004 189.967C60.4552 179.722 17.7771 139.296 7.51063 117.031C2.97213 107.187 0.432129 96.18 0.432129 84.5599C0.432129 42.6792 33.4232 8.72974 74.1198 8.72974C77.1332 8.72974 80.104 8.91592 83.0226 9.27745" fill="#FF8086"/>
<path d="M103.538 15.0136L83.0225 9.27745C80.104 8.91592 77.1331 8.72974 74.1197 8.72974C71.4957 8.72974 68.9042 8.87334 66.3511 9.14894C66.7474 9.19152 67.145 9.22868 67.5394 9.27784L88.0545 15.0139C114.11 26.7018 132.324 53.4415 132.324 84.5603C132.324 96.1807 129.733 107.165 125.246 117.031C116.827 135.542 96.9573 155.025 96.9573 155.025C86.2279 166.42 74.1035 178.016 66.4184 185.201C68.4761 187.15 70.2071 188.768 71.5004 189.967C72.9798 191.34 75.2612 191.345 76.7472 189.979C82.9099 184.318 98.8045 169.508 112.44 155.025C112.44 155.025 132.31 135.542 140.729 117.031C145.216 107.164 147.807 96.1807 147.807 84.5599C147.807 53.4411 129.593 26.7014 103.538 15.0136Z" fill="#E5646E"/>
<path d="M74.1197 138.982C103.05 138.982 126.503 114.888 126.503 85.167C126.503 55.4459 103.05 31.3523 74.1197 31.3523C45.189 31.3523 21.7361 55.4459 21.7361 85.167C21.7361 114.888 45.189 138.982 74.1197 138.982Z" fill="#C3DDFF"/>
<path d="M48.3399 81.74C46.7366 81.74 45.4368 80.4405 45.4368 78.8369V63.567C45.4368 61.9634 46.7366 60.6639 48.3399 60.6639C49.9431 60.6639 51.2429 61.9634 51.2429 63.567V78.8369C51.2429 80.4401 49.9431 81.74 48.3399 81.74Z" fill="#857E87"/>
<path d="M60.2395 81.7399C58.6362 81.7399 57.3364 80.4405 57.3364 78.8369V51.1631C57.3364 49.5594 58.6362 48.26 60.2395 48.26C61.8428 48.26 63.1426 49.5594 63.1426 51.1631V78.8369C63.1426 80.4401 61.8428 81.7399 60.2395 81.7399Z" fill="#857E87"/>
<path d="M103.56 22.1653H83.396V1.93539C83.396 0.866668 84.2627 0 85.3314 0H101.625C102.693 0 103.56 0.866668 103.56 1.93539V22.1653Z" fill="#DFDDE0"/>
<path d="M101.625 0H90.0122C91.0809 0 91.9476 0.866668 91.9476 1.93539V22.1653H103.56V1.93539C103.56 0.866668 102.694 0 101.625 0Z" fill="#C8C5C9"/>
<path d="M74.9414 138.982V80.883C74.9414 79.8143 74.0748 78.9476 73.006 78.9476H37.1165C36.0478 78.9476 35.1812 79.8143 35.1812 80.883V121.072C35.1812 121.072 49.829 139.453 74.9414 138.982Z" fill="#857E87"/>
<path d="M73.0059 78.9476H61.3936C62.4623 78.9476 63.3289 79.8143 63.3289 80.883V137.828C66.8997 138.617 70.7756 139.06 74.9413 138.982V80.883C74.9413 79.8143 74.075 78.9476 73.0059 78.9476Z" fill="#5D5360"/>
<path d="M74.285 138.982L73.8979 23.3265C73.8979 22.2578 74.7646 21.3911 75.8333 21.3911H111.123C112.192 21.3911 113.058 22.2578 113.058 23.3265V121.18C113.058 121.18 98.9655 138.937 74.285 138.982Z" fill="white"/>
<path d="M111.123 21.3911H99.5104C100.579 21.3911 101.446 22.2578 101.446 23.3265V118.72C101.446 120.399 100.782 122.006 99.6076 123.207C96.0255 126.867 87.3039 134.489 74.2803 137.606L74.2849 138.981C98.9654 138.937 113.058 121.18 113.058 121.18V23.3265C113.058 22.2574 112.191 21.3911 111.123 21.3911Z" fill="#F0EEF0"/>
<path d="M99.1804 45.6751H87.7778C86.1746 45.6751 84.8748 44.3756 84.8748 42.772C84.8748 41.1683 86.1746 39.8689 87.7778 39.8689H99.1804C100.784 39.8689 102.083 41.1683 102.083 42.772C102.083 44.3756 100.784 45.6751 99.1804 45.6751Z" fill="#C3DDFF"/>
<path d="M99.1804 68.2545H87.7778C86.1746 68.2545 84.8748 66.9551 84.8748 65.3514C84.8748 63.7478 86.1746 62.4484 87.7778 62.4484H99.1804C100.784 62.4484 102.083 63.7478 102.083 65.3514C102.083 66.9551 100.784 68.2545 99.1804 68.2545Z" fill="#C3DDFF"/>
<path d="M99.1804 90.8345H87.7778C86.1746 90.8345 84.8748 89.5351 84.8748 87.9314C84.8748 86.3277 86.1746 85.0283 87.7778 85.0283H99.1804C100.784 85.0283 102.083 86.3277 102.083 87.9314C102.083 89.5351 100.784 90.8345 99.1804 90.8345Z" fill="#C3DDFF"/>
<path d="M99.1804 113.414H87.7778C86.1746 113.414 84.8748 112.114 84.8748 110.511C84.8748 108.907 86.1746 107.608 87.7778 107.608H99.1804C100.784 107.608 102.083 108.907 102.083 110.511C102.083 112.114 100.784 113.414 99.1804 113.414Z" fill="#C3DDFF"/>
<path d="M47.9031 102.576C46.2998 102.576 45 101.276 45 99.6726V93.7197C45 92.1161 46.2998 90.8167 47.9031 90.8167C49.5064 90.8167 50.8062 92.1161 50.8062 93.7197V99.6726C50.8062 101.276 49.5064 102.576 47.9031 102.576Z" fill="white"/>
<path d="M47.9031 123.529C46.2998 123.529 45 122.23 45 120.626V114.673C45 113.069 46.2998 111.77 47.9031 111.77C49.5064 111.77 50.8062 113.069 50.8062 114.673V120.626C50.8062 122.229 49.5064 123.529 47.9031 123.529Z" fill="white"/>
<path d="M60.6768 102.576C59.0735 102.576 57.7737 101.276 57.7737 99.6726V93.7197C57.7737 92.1161 59.0735 90.8167 60.6768 90.8167C62.28 90.8167 63.5799 92.1161 63.5799 93.7197V99.6726C63.5799 101.276 62.28 102.576 60.6768 102.576Z" fill="white"/>
<path d="M60.6768 123.529C59.0735 123.529 57.7737 122.23 57.7737 120.626V114.673C57.7737 113.069 59.0735 111.77 60.6768 111.77C62.28 111.77 63.5799 113.069 63.5799 114.673V120.626C63.5799 122.229 62.28 123.529 60.6768 123.529Z" fill="white"/>
</svg>
