<svg width="30" height="31" viewBox="0 0 30 31" fill="none" xmlns="http://www.w3.org/2000/svg">
<path d="M30 15.5C30 19.6352 28.5385 23.1699 25.6042 26.1042C22.6699 29.0385 19.1465 30.5 15 30.5C10.8648 30.5 7.33006 29.0385 4.39577 26.1042C1.46148 23.1699 0 19.6465 0 15.5C0 11.3648 1.46148 7.83006 4.39577 4.89577C7.33006 1.96148 10.8648 0.5 15 0.5C19.1352 0.5 22.6699 1.96148 25.6042 4.89577C28.5385 7.83006 30 11.3535 30 15.5ZM19.6337 11.9766H16.4728V9.92598C16.4728 9.25755 16.7674 8.929 17.3565 8.929H19.577V5.53021L16.5294 5.47356C15.0113 5.47356 13.9237 5.91541 13.2779 6.78776C12.6322 7.67145 12.3149 8.63444 12.3149 9.68807V11.9766H10.321V15.4887H12.3149V25.5038H16.4728V15.4887H19.2825L19.6337 11.9766Z" fill="white"/>
</svg>
