<svg width="240" height="72" viewBox="0 0 240 72" fill="none" xmlns="http://www.w3.org/2000/svg">
<path d="M80.5246 0L8.9311 0.00836087C4.95888 0.00836087 2.47518 4.23896 4.46554 7.62511L6.86418 11.7052C8.29316 14.1382 11.4488 14.966 13.924 13.5613L22.6425 8.61169C25.2112 7.1569 28.6731 7.95118 30.0425 10.5431C30.6635 11.7136 30.7825 13.0095 30.4593 14.1968C30.1191 15.4509 29.277 16.5712 28.0437 17.2736L19.087 22.357L14.613 24.8903L10.1389 27.4236C8.90558 28.126 8.07201 29.263 7.72327 30.5172C7.38304 31.7713 7.52764 33.1592 8.24212 34.3799C9.6626 36.8045 12.8353 37.6323 15.3105 36.2276L19.7845 33.6943L24.2586 31.161L28.3159 28.8617C35.4267 24.8234 44.7066 26.5625 49.3082 33.2512C51.962 37.1055 52.5744 41.6622 51.4687 45.7674C50.431 49.5298 47.9388 52.9159 44.2387 55.0145L39.7562 57.5562C37.281 58.9608 36.4389 62.0627 37.8679 64.4957L40.2665 68.5758C42.2484 71.9536 47.2243 71.962 49.2061 68.5675L84.9986 7.62511C86.989 4.23896 84.5053 0.00836087 80.5246 0Z" fill="white"/>
<path d="M34.5847 48.7522L39.0673 46.2105C40.2921 45.5166 41.1342 44.3962 41.4744 43.1421C41.8147 41.8879 41.6701 40.5 40.9556 39.2794C39.5266 36.8464 36.3709 36.027 33.9042 37.4233L29.4217 39.965L24.9476 42.4983L20.4735 45.0316C19.2402 45.7339 18.3981 46.8543 18.0579 48.1084C17.7176 49.3626 17.8622 50.7505 18.5767 51.9711C20.0057 54.4042 23.1699 55.2235 25.6451 53.8189L30.1191 51.2856L34.5847 48.7522Z" fill="white"/>
<path d="M5.16304 64.6628C8.01451 64.6628 10.3261 62.3906 10.3261 59.5877C10.3261 56.7849 8.01451 54.5127 5.16304 54.5127C2.31157 54.5127 0 56.7849 0 59.5877C0 62.3906 2.31157 64.6628 5.16304 64.6628Z" fill="white"/>
<path d="M94.7632 35.6258C93.6574 34.5806 92.1859 34.0455 90.3316 34.0455C89.43 34.0455 88.707 34.1124 88.1881 34.2211V31.2697H95.2565V27.2983H83.8672V45.8594H84.2244C84.4031 45.8845 84.6497 45.8845 84.9729 45.8845C85.3132 45.9096 85.6534 45.9096 85.9681 45.9096C87.1164 45.9765 88.1626 46.0016 89.1323 46.0016C91.4374 46.0016 93.2406 45.4498 94.5335 44.3545C95.8179 43.2676 96.4558 41.7543 96.4558 39.7811C96.4558 38.0504 95.8859 36.6709 94.7632 35.6258ZM89.7872 42.0218C89.5831 42.0218 89.0387 41.98 88.1796 41.888V38.2093C88.8091 38.1006 89.4215 38.0337 89.9829 38.0337C90.7059 38.0337 91.2502 38.2343 91.5905 38.6106C91.9562 38.9868 92.1349 39.4968 92.1349 40.1239C92.1434 41.378 91.3693 42.0218 89.7872 42.0218Z" fill="white"/>
<path d="M107.905 26.9888L98.0804 45.8676H102.844L107.794 35.2326L112.949 45.8676H117.942L107.905 26.9888Z" fill="white"/>
<path d="M131.559 27.2983V34.4051H124.669V27.2983H120.357V45.8595H124.669V38.3765H131.559V45.8595H135.872V27.2983H131.559Z" fill="white"/>
<path d="M152.637 40.2493L149.294 35.8765L156.388 27.3066H151.216L145.05 35.3916V27.3066H140.737V45.8678H145.05V37.0303L149.005 42.4733C150.11 44.0033 151.267 45.0484 152.441 45.6253C153.598 46.1771 154.925 46.2691 156.422 45.8678V42.1555C155.129 42.49 153.862 41.8713 152.637 40.2493Z" fill="white"/>
<path d="M169.113 37.2476V27.2981H164.8V46.177L176.93 36.1857V45.8676H181.242V26.9888L169.113 37.2476Z" fill="white"/>
<path d="M202.566 41.8878L194.477 26.9888L186.567 41.8878H183.921V49.0363H187.962V45.8592H201.29V49.0363H205.331V41.8878H202.566ZM191.381 41.8878L194.367 35.5336L197.505 41.8878H191.381Z" fill="white"/>
<path d="M212.373 41.888V38.5102H218.429V34.5388H212.373V31.2781H219.237V27.3066H208.052V45.8678H219.51V41.888H212.373Z" fill="white"/>
<path d="M227.871 37.2476V27.2981H223.558V46.177L235.688 36.1857V45.8676H240V26.9888L227.871 37.2476Z" fill="white"/>
<path d="M234.914 22.5244H229.708C229.419 22.5244 229.24 22.8338 229.385 23.0762L231.988 27.5075C232.132 27.7499 232.49 27.7499 232.634 27.5075L235.237 23.0762C235.382 22.8338 235.203 22.5244 234.914 22.5244Z" fill="white"/>
<path d="M113.195 39.2207H102.827V43.2005H113.195V39.2207Z" fill="white"/>
<path d="M84.1901 56.9623C84.1901 56.0509 84.4963 55.2817 85.1172 54.6547C85.7466 54.036 86.5462 53.7183 87.5073 53.7183C88.4685 53.7183 89.2595 54.0193 89.889 54.6129C90.5184 55.2149 90.8416 55.9924 90.8416 56.9539C90.8416 57.8903 90.5269 58.6679 89.889 59.2782C89.2595 59.8886 88.46 60.1896 87.5073 60.1896C86.5462 60.1896 85.7551 59.8886 85.1257 59.295C84.5048 58.7013 84.1901 57.9238 84.1901 56.9623ZM85.3724 56.9623C85.3724 57.5977 85.5765 58.1244 85.9848 58.5425C86.3931 58.9605 86.9034 59.1695 87.5073 59.1695C88.1623 59.1695 88.6811 58.9605 89.0639 58.5425C89.4552 58.1244 89.6508 57.5977 89.6508 56.9623C89.6508 56.3268 89.4467 55.7918 89.0299 55.3737C88.6131 54.964 88.1112 54.755 87.5073 54.755C86.8949 54.755 86.3846 54.964 85.9763 55.3737C85.5765 55.7834 85.3724 56.3185 85.3724 56.9623Z" fill="white"/>
<path d="M93.6231 60.098H92.5004V53.7271L95.5965 56.2688L98.5905 53.7271V60.098H97.4763V56.1266L95.5965 57.7821L93.6231 56.1183V60.098Z" fill="white"/>
<path d="M105.149 58.6683L105.574 59.496C105.37 59.705 105.089 59.8722 104.715 60.006C104.341 60.1398 103.949 60.2067 103.533 60.2067C102.563 60.2067 101.763 59.914 101.151 59.3204C100.547 58.7268 100.241 57.9492 100.241 56.971C100.241 56.0346 100.53 55.2654 101.108 54.6467C101.678 54.0363 102.478 53.7354 103.507 53.7354C104.324 53.7354 104.97 53.9444 105.446 54.3708L104.945 55.1901C104.511 54.9059 104.034 54.7721 103.507 54.7721C102.903 54.7721 102.401 54.9728 102.01 55.3741C101.619 55.7754 101.423 56.3105 101.423 56.9794C101.423 57.6399 101.627 58.1666 102.036 58.5763C102.452 58.986 102.98 59.1866 103.635 59.1866C104.196 59.1616 104.698 58.9943 105.149 58.6683Z" fill="white"/>
<path d="M108.177 60.0978H107.054V53.8188H108.177V56.7953L110.694 53.8188H112.047L109.419 56.7368L110.788 58.409C111.29 59.0026 111.741 59.245 112.14 59.1364V60.0978C111.349 60.3319 110.584 59.9641 109.852 58.9942L108.185 56.8622V60.0978H108.177Z" fill="white"/>
<path d="M112.719 56.9623C112.719 56.0509 113.025 55.2817 113.646 54.6547C114.275 54.036 115.075 53.7183 116.036 53.7183C116.997 53.7183 117.788 54.0193 118.418 54.6129C119.047 55.2149 119.37 55.9924 119.37 56.9539C119.37 57.8903 119.056 58.6679 118.418 59.2782C117.788 59.8886 116.989 60.1896 116.036 60.1896C115.075 60.1896 114.284 59.8886 113.654 59.295C113.033 58.7013 112.719 57.9238 112.719 56.9623ZM113.901 56.9623C113.901 57.5977 114.105 58.1244 114.513 58.5425C114.922 58.9605 115.432 59.1695 116.036 59.1695C116.691 59.1695 117.21 58.9605 117.593 58.5425C117.984 58.1244 118.179 57.5977 118.179 56.9623C118.179 56.3268 117.975 55.7918 117.559 55.3737C117.142 54.964 116.64 54.755 116.036 54.755C115.424 54.755 114.913 54.964 114.505 55.3737C114.105 55.7834 113.901 56.3185 113.901 56.9623Z" fill="white"/>
<path d="M122.152 60.0978H121.029V53.8188H124.627V54.8472H122.143V60.0978H122.152Z" fill="white"/>
<path d="M125.308 56.9623C125.308 56.0509 125.614 55.2817 126.235 54.6547C126.864 54.036 127.664 53.7183 128.625 53.7183C129.586 53.7183 130.377 54.0193 131.007 54.6129C131.636 55.2149 131.959 55.9924 131.959 56.9539C131.959 57.8903 131.644 58.6679 131.007 59.2782C130.377 59.8886 129.578 60.1896 128.625 60.1896C127.664 60.1896 126.873 59.8886 126.243 59.295C125.614 58.7013 125.308 57.9238 125.308 56.9623ZM126.49 56.9623C126.49 57.5977 126.694 58.1244 127.102 58.5425C127.511 58.9605 128.021 59.1695 128.625 59.1695C129.28 59.1695 129.799 58.9605 130.181 58.5425C130.573 58.1244 130.768 57.5977 130.768 56.9623C130.768 56.3268 130.564 55.7918 130.147 55.3737C129.731 54.964 129.229 54.755 128.625 54.755C128.012 54.755 127.502 54.964 127.094 55.3737C126.694 55.7834 126.49 56.3185 126.49 56.9623Z" fill="white"/>
<path d="M138.849 60.0978H137.726V53.8188H141.324V54.8472H138.84V60.0978H138.849Z" fill="white"/>
<path d="M141.996 56.9623C141.996 56.0509 142.302 55.2817 142.923 54.6547C143.553 54.036 144.352 53.7183 145.313 53.7183C146.274 53.7183 147.065 54.0193 147.695 54.6129C148.324 55.2149 148.648 55.9924 148.648 56.9539C148.648 57.8903 148.333 58.6679 147.695 59.2782C147.065 59.8886 146.266 60.1896 145.313 60.1896C144.352 60.1896 143.561 59.8886 142.932 59.295C142.311 58.7013 141.996 57.9238 141.996 56.9623ZM143.187 56.9623C143.187 57.5977 143.391 58.1244 143.799 58.5425C144.207 58.9605 144.718 59.1695 145.322 59.1695C145.977 59.1695 146.496 58.9605 146.878 58.5425C147.27 58.1244 147.465 57.5977 147.465 56.9623C147.465 56.3268 147.261 55.7918 146.844 55.3737C146.428 54.964 145.926 54.755 145.322 54.755C144.709 54.755 144.199 54.964 143.791 55.3737C143.382 55.7834 143.187 56.3185 143.187 56.9623Z" fill="white"/>
<path d="M154.738 58.6683L155.163 59.496C154.959 59.705 154.678 59.8722 154.304 60.006C153.93 60.1398 153.538 60.2067 153.121 60.2067C152.152 60.2067 151.352 59.914 150.74 59.3204C150.136 58.7268 149.83 57.9492 149.83 56.971C149.83 56.0346 150.119 55.2654 150.697 54.6467C151.267 54.0363 152.067 53.7354 153.096 53.7354C153.913 53.7354 154.559 53.9444 155.035 54.3708L154.533 55.1901C154.1 54.9059 153.623 54.7721 153.096 54.7721C152.492 54.7721 151.99 54.9728 151.599 55.3741C151.208 55.7754 151.012 56.3105 151.012 56.9794C151.012 57.6399 151.216 58.1666 151.624 58.5763C152.041 58.986 152.569 59.1866 153.224 59.1866C153.785 59.1616 154.287 58.9943 154.738 58.6683Z" fill="white"/>
<path d="M160.539 53.8268H161.67L159.501 58.6426C159.28 59.1443 159.025 59.5122 158.752 59.7463C158.48 59.9804 158.149 60.0974 157.774 60.0974C157.4 60.0974 157.102 60.0138 156.898 59.8466L157.289 58.9102C157.451 59.0105 157.604 59.0607 157.766 59.0607C158.055 59.0607 158.259 58.9102 158.395 58.6175L158.489 58.4002L155.673 53.8101H156.941L159.033 57.3133L160.539 53.8268Z" fill="white"/>
<path d="M162.257 61.2184H161.211V59.0696H162.095L164.775 53.7271L167.513 59.0696H168.458V61.2184H167.411V60.098H162.265V61.2184H162.257ZM166.186 59.0696L164.749 56.1266L163.354 59.0696H166.186Z" fill="white"/>
<path d="M170.15 60.098H168.917L172.098 53.7271L175.356 60.098H174.063L173.365 58.7018H170.814L170.15 60.098ZM172.872 57.665L172.081 56.0514L171.316 57.665H172.872Z" fill="white"/>
<path d="M177.78 57.8317V60.0975H176.657V53.8185C176.921 53.8185 177.21 53.8185 177.525 53.8101C177.84 53.8018 178.154 53.8018 178.477 53.8018C178.928 53.8018 179.32 53.8603 179.651 53.969C179.983 54.0777 180.238 54.2282 180.425 54.4288C180.604 54.6211 180.74 54.8385 180.825 55.0642C180.91 55.29 180.953 55.5492 180.953 55.8251C180.953 56.3936 180.749 56.8702 180.332 57.2715C179.923 57.6645 179.354 57.8651 178.614 57.8651C178.239 57.8568 177.959 57.8484 177.78 57.8317ZM178.58 54.8385L177.78 54.8552V56.7782C178.103 56.8117 178.367 56.82 178.571 56.82C178.928 56.82 179.217 56.7364 179.43 56.5608C179.643 56.3853 179.753 56.1344 179.753 55.8084C179.753 55.1646 179.362 54.8385 178.58 54.8385Z" fill="white"/>
<path d="M186.992 58.6683L187.417 59.496C187.213 59.705 186.932 59.8722 186.558 60.006C186.184 60.1398 185.792 60.2067 185.376 60.2067C184.406 60.2067 183.606 59.914 182.994 59.3204C182.39 58.7268 182.084 57.9492 182.084 56.971C182.084 56.0346 182.373 55.2654 182.951 54.6467C183.521 54.0363 184.321 53.7354 185.35 53.7354C186.167 53.7354 186.813 53.9444 187.289 54.3708L186.788 55.1901C186.354 54.9059 185.877 54.7721 185.35 54.7721C184.746 54.7721 184.244 54.9728 183.853 55.3741C183.462 55.7754 183.266 56.3105 183.266 56.9794C183.266 57.6399 183.47 58.1666 183.879 58.5763C184.295 58.986 184.823 59.1866 185.478 59.1866C186.031 59.1616 186.541 58.9943 186.992 58.6683Z" fill="white"/>
<path d="M190.173 54.8555H188.106V53.8271H193.371V54.8555H191.304V60.0978H190.181V54.8555H190.173Z" fill="white"/>
<path d="M194.706 60.0891V53.8436C195.361 53.8101 195.974 53.8018 196.552 53.8018C197.258 53.8018 197.786 53.9355 198.126 54.2114C198.475 54.4873 198.645 54.8636 198.645 55.3485C198.645 56.0257 198.338 56.5023 197.735 56.7699V56.7866C198.083 56.8786 198.355 57.0458 198.551 57.2966C198.755 57.5474 198.849 57.8651 198.849 58.2497C198.849 58.8601 198.636 59.3283 198.211 59.646C197.786 59.9721 197.207 60.1309 196.476 60.1309C195.753 60.1309 195.157 60.1142 194.706 60.0891ZM196.527 54.8301C196.263 54.8301 196.025 54.8385 195.821 54.8552V56.4438H196.578C196.867 56.4438 197.097 56.3685 197.267 56.2264C197.437 56.0843 197.53 55.8753 197.53 55.6077C197.53 55.3569 197.445 55.1646 197.267 55.0308C197.088 54.897 196.841 54.8301 196.527 54.8301ZM196.62 57.3969H195.829V59.0524C196.118 59.0858 196.365 59.0942 196.569 59.0942C197.343 59.0942 197.735 58.7932 197.735 58.1912C197.735 57.932 197.641 57.7314 197.445 57.5976C197.241 57.4638 196.969 57.3969 196.62 57.3969Z" fill="white"/>
<path d="M204.48 60.0978H200.695V53.8188H204.386V54.8472H201.817V56.4107H204.114V57.4391H201.817V59.0611H204.48V60.0978Z" fill="white"/>
<path d="M211.454 60.0978H210.34V57.414H207.423V60.0978H206.3V53.8188H207.423V56.3856H210.34V53.8188H211.454V60.0978Z" fill="white"/>
<path d="M218.744 60.0978H217.63V57.414H214.712V60.0978H213.589V53.8188H214.712V56.3856H217.63V53.8188H218.744V60.0978Z" fill="white"/>
<path d="M220.402 56.9623C220.402 56.0509 220.709 55.2817 221.329 54.6547C221.959 54.036 222.758 53.7183 223.72 53.7183C224.681 53.7183 225.472 54.0193 226.101 54.6129C226.731 55.2149 227.054 55.9924 227.054 56.9539C227.054 57.8903 226.739 58.6679 226.101 59.2782C225.472 59.8886 224.672 60.1896 223.72 60.1896C222.758 60.1896 221.967 59.8886 221.338 59.295C220.717 58.7013 220.402 57.9238 220.402 56.9623ZM221.585 56.9623C221.585 57.5977 221.789 58.1244 222.197 58.5425C222.605 58.9605 223.116 59.1695 223.72 59.1695C224.375 59.1695 224.893 58.9605 225.276 58.5425C225.667 58.1244 225.863 57.5977 225.863 56.9623C225.863 56.3268 225.659 55.7918 225.242 55.3737C224.825 54.964 224.324 54.755 223.72 54.755C223.107 54.755 222.597 54.964 222.189 55.3737C221.789 55.7834 221.585 56.3185 221.585 56.9623Z" fill="white"/>
<path d="M229.835 60.0978H228.713V53.8188H232.311V54.8472H229.827V60.0978H229.835Z" fill="white"/>
<path d="M232.991 56.9623C232.991 56.0509 233.297 55.2817 233.918 54.6547C234.548 54.036 235.347 53.7183 236.308 53.7183C237.27 53.7183 238.061 54.0193 238.69 54.6129C239.32 55.2149 239.643 55.9924 239.643 56.9539C239.643 57.8903 239.328 58.6679 238.69 59.2782C238.061 59.8886 237.261 60.1896 236.308 60.1896C235.347 60.1896 234.556 59.8886 233.927 59.295C233.297 58.7013 232.991 57.9238 232.991 56.9623ZM234.174 56.9623C234.174 57.5977 234.378 58.1244 234.786 58.5425C235.194 58.9605 235.705 59.1695 236.308 59.1695C236.963 59.1695 237.482 58.9605 237.865 58.5425C238.256 58.1244 238.452 57.5977 238.452 56.9623C238.452 56.3268 238.248 55.7918 237.831 55.3737C237.414 54.964 236.912 54.755 236.308 54.755C235.696 54.755 235.186 54.964 234.777 55.3737C234.378 55.7834 234.174 56.3185 234.174 56.9623Z" fill="white"/>
<path d="M85.9426 65.6075H83.8672V64.5791H89.1323V65.6075H87.0654V70.8497H85.9426V65.6075Z" fill="white"/>
<path d="M94.2612 70.8581H90.4761V64.5791H94.1676V65.6075H91.5988V67.171H93.8954V68.1994H91.5988V69.8214H94.2612V70.8581Z" fill="white"/>
<path d="M99.8155 64.5791H101.125L98.9735 67.6559L101.21 70.8581H99.9006L98.2505 68.5003L96.6088 70.8581H95.299L97.536 67.6559L95.401 64.5791H96.7109L98.276 66.8449L99.8155 64.5791Z" fill="white"/>
<path d="M107.7 70.8581H106.586V68.1743H103.669V70.8581H102.546V64.5791H103.669V67.1459H106.586V64.5791H107.7V70.8581Z" fill="white"/>
<path d="M114.165 70.8583V66.9705L109.835 70.9503V64.5793H110.958V68.534L115.288 64.479V70.85H114.165V70.8583Z" fill="white"/>
<path d="M120.612 64.5791H121.735V70.8581H120.612V68.283C120.212 68.5672 119.702 68.7094 119.09 68.7094C118.537 68.7094 118.077 68.5505 117.703 68.2244C117.329 67.8984 117.15 67.3967 117.15 66.7028V64.5791H118.273V66.3934C118.273 67.2546 118.647 67.681 119.396 67.681C119.813 67.681 120.212 67.5472 120.621 67.2797V64.5791H120.612Z" fill="white"/>
<path d="M127.655 70.8581H123.87V64.5791H127.561V65.6075H124.993V67.171H127.289V68.1994H124.993V69.8214H127.655V70.8581Z" fill="white"/>
<path d="M133.915 69.4202L134.34 70.2479C134.136 70.457 133.856 70.6242 133.481 70.7579C133.107 70.8917 132.716 70.9586 132.299 70.9586C131.329 70.9586 130.53 70.666 129.917 70.0724C129.314 69.4787 129.007 68.7012 129.007 67.723C129.007 66.7865 129.297 66.0173 129.875 65.3986C130.445 64.7883 131.244 64.4873 132.274 64.4873C133.09 64.4873 133.737 64.6963 134.213 65.1227L133.711 65.9421C133.277 65.6578 132.801 65.5241 132.274 65.5241C131.67 65.5241 131.168 65.7247 130.777 66.126C130.385 66.5274 130.19 67.0625 130.19 67.7313C130.19 68.3918 130.394 68.9186 130.802 69.3282C131.219 69.7379 131.746 69.9386 132.401 69.9386C132.954 69.9219 133.464 69.7546 133.915 69.4202Z" fill="white"/>
<path d="M136.943 70.8581H135.821V64.5791H136.943V67.5556L139.461 64.5791H140.814L138.185 67.497L139.555 69.1692C140.057 69.7628 140.507 70.0053 140.907 69.8966V70.8581C140.116 71.0922 139.351 70.7243 138.619 69.7545L136.943 67.6225V70.8581Z" fill="white"/>
<path d="M141.486 67.7142C141.486 66.8029 141.792 66.0337 142.413 65.4066C143.042 64.7879 143.842 64.4702 144.803 64.4702C145.764 64.4702 146.555 64.7712 147.184 65.3648C147.814 65.9668 148.137 66.7444 148.137 67.7059C148.137 68.6423 147.822 69.4198 147.184 70.0302C146.555 70.6405 145.756 70.9415 144.803 70.9415C143.842 70.9415 143.051 70.6405 142.421 70.0469C141.792 69.4616 141.486 68.6757 141.486 67.7142ZM142.668 67.7142C142.668 68.3497 142.872 68.8764 143.28 69.2944C143.689 69.7125 144.199 69.9215 144.803 69.9215C145.458 69.9215 145.977 69.7125 146.359 69.2944C146.751 68.8764 146.946 68.3497 146.946 67.7142C146.946 67.0788 146.742 66.5437 146.325 66.1257C145.909 65.716 145.407 65.507 144.803 65.507C144.19 65.507 143.68 65.716 143.272 66.1257C142.872 66.5437 142.668 67.0704 142.668 67.7142Z" fill="white"/>
<path d="M150.91 70.8581H149.787V64.5791H153.385V65.6075H150.901V70.8581H150.91Z" fill="white"/>
<path d="M154.066 67.7142C154.066 66.8029 154.372 66.0337 154.993 65.4066C155.622 64.7879 156.422 64.4702 157.383 64.4702C158.344 64.4702 159.135 64.7712 159.765 65.3648C160.394 65.9668 160.717 66.7444 160.717 67.7059C160.717 68.6423 160.403 69.4198 159.765 70.0302C159.135 70.6405 158.336 70.9415 157.383 70.9415C156.422 70.9415 155.631 70.6405 155.001 70.0469C154.38 69.4616 154.066 68.6757 154.066 67.7142ZM155.256 67.7142C155.256 68.3497 155.461 68.8764 155.869 69.2944C156.277 69.7125 156.788 69.9215 157.391 69.9215C158.046 69.9215 158.565 69.7125 158.948 69.2944C159.339 68.8764 159.535 68.3497 159.535 67.7142C159.535 67.0788 159.331 66.5437 158.914 66.1257C158.497 65.716 157.995 65.507 157.391 65.507C156.779 65.507 156.269 65.716 155.86 66.1257C155.452 66.5437 155.256 67.0704 155.256 67.7142Z" fill="white"/>
<path d="M168.951 64.5792H170.082L167.913 69.3951C167.692 69.8967 167.437 70.2646 167.165 70.4987C166.884 70.7328 166.561 70.8499 166.186 70.8499C165.812 70.8499 165.514 70.7663 165.31 70.599L165.702 69.6626C165.863 69.763 166.016 69.8131 166.178 69.8131C166.467 69.8131 166.671 69.6626 166.807 69.37L166.901 69.1526L164.085 64.5625H165.353L167.445 68.0657L168.951 64.5792Z" fill="white"/>
<path d="M176.589 70.8581H175.475V68.1743H172.557V70.8581H171.435V64.5791H172.557V67.1459H175.475V64.5791H176.589V70.8581Z" fill="white"/>
<path d="M183.054 70.8583V66.9705L178.724 70.9503V64.5793H179.847V68.534L184.176 64.479V70.85H183.054V70.8583Z" fill="white"/>
<path d="M186.311 70.8499V64.6043C186.966 64.5709 187.579 64.5625 188.157 64.5625C188.863 64.5625 189.39 64.6963 189.731 64.9722C190.079 65.2481 190.249 65.6243 190.249 66.1093C190.249 66.7865 189.943 67.2631 189.339 67.5306V67.5473C189.688 67.6393 189.96 67.8065 190.156 68.0573C190.36 68.3082 190.454 68.6259 190.454 69.0105C190.454 69.6208 190.241 70.089 189.816 70.4067C189.39 70.7328 188.812 70.8917 188.08 70.8917C187.349 70.8917 186.77 70.8749 186.311 70.8499ZM188.14 65.5825C187.876 65.5825 187.638 65.5909 187.434 65.6076V67.1962H188.191C188.48 67.1962 188.71 67.1209 188.88 66.9788C189.05 66.8367 189.144 66.6276 189.144 66.3601C189.144 66.1093 189.059 65.917 188.88 65.7832C188.701 65.6494 188.455 65.5825 188.14 65.5825ZM188.225 68.1577H187.434V69.8131C187.723 69.8466 187.97 69.8549 188.174 69.8549C188.948 69.8549 189.339 69.5539 189.339 68.952C189.339 68.6928 189.246 68.4921 189.05 68.3583C188.854 68.2246 188.582 68.1577 188.225 68.1577Z" fill="white"/>
<path d="M196.093 70.8581H192.308V64.5791H195.999V65.6075H193.431V67.171H195.727V68.1994H193.431V69.8214H196.093V70.8581Z" fill="white"/>
<path d="M199.036 68.5836V70.8494H197.913V64.5704C198.177 64.5704 198.466 64.5704 198.781 64.5621C199.095 64.5537 199.41 64.5537 199.733 64.5537C200.184 64.5537 200.575 64.6122 200.907 64.7209C201.239 64.8296 201.494 64.9801 201.681 65.1808C201.86 65.3731 201.996 65.5905 202.081 65.8162C202.166 66.0419 202.209 66.3011 202.209 66.577C202.209 67.1456 202.004 67.6221 201.588 68.0235C201.179 68.4164 200.609 68.6171 199.869 68.6171C199.495 68.6171 199.214 68.6087 199.036 68.5836ZM199.835 65.5905L199.036 65.6072V67.5302C199.359 67.5636 199.623 67.572 199.827 67.572C200.184 67.572 200.473 67.4884 200.686 67.3128C200.899 67.1372 201.009 66.8864 201.009 66.5603C201.018 65.9165 200.618 65.5905 199.835 65.5905Z" fill="white"/>
<path d="M208.248 69.4202L208.673 70.2479C208.469 70.457 208.188 70.6242 207.814 70.7579C207.44 70.8917 207.048 70.9586 206.632 70.9586C205.662 70.9586 204.862 70.666 204.25 70.0724C203.646 69.4787 203.34 68.7012 203.34 67.723C203.34 66.7865 203.629 66.0173 204.207 65.3986C204.777 64.7883 205.577 64.4873 206.606 64.4873C207.423 64.4873 208.069 64.6963 208.545 65.1227L208.044 65.9421C207.61 65.6578 207.133 65.5241 206.606 65.5241C206.002 65.5241 205.5 65.7247 205.109 66.126C204.718 66.5274 204.522 67.0625 204.522 67.7313C204.522 68.3918 204.726 68.9186 205.135 69.3282C205.551 69.7379 206.079 69.9386 206.734 69.9386C207.295 69.9219 207.797 69.7546 208.248 69.4202Z" fill="white"/>
<path d="M214.482 70.8583V66.9705L210.153 70.9503V64.5793H211.276V68.534L215.605 64.479V70.85H214.482V70.8583Z" fill="white"/>
<path d="M219.016 65.6075H216.949V64.5791H222.214V65.6075H220.147V70.8497H219.024V65.6075H219.016Z" fill="white"/>
<path d="M227.335 70.8581H223.55V64.5791H227.241V65.6075H224.672V67.171H226.969V68.1994H224.672V69.8214H227.335V70.8581Z" fill="white"/>
<path d="M230.439 65.6075H228.373V64.5791H233.638V65.6075H231.571V70.8497H230.448V65.6075H230.439Z" fill="white"/>
<path d="M234.794 70.8583H233.561L236.742 64.4873L240 70.8583H238.707L238.01 69.462H235.458L234.794 70.8583ZM237.516 68.4253L236.725 66.8116L235.96 68.4253H237.516Z" fill="white"/>
</svg>
