<svg width="159" height="159" viewBox="0 0 159 159" fill="none" xmlns="http://www.w3.org/2000/svg">
<path d="M8.223 46.6076H3.50799C2.66616 46.6076 1.87041 46.2194 1.35124 45.5559C0.83207 44.8924 0.647691 44.0263 0.849052 43.2087L7.70261 15.7956C8.00466 14.5729 9.10244 13.7141 10.3616 13.7129H148.631C149.89 13.7141 150.987 14.5729 151.29 15.7956L158.143 43.2087C158.345 44.0263 158.16 44.8924 157.64 45.5559C157.121 46.2194 156.327 46.6076 155.484 46.6076H8.223Z" fill="#3F5C6C"/>
<path d="M151.797 46.6076V139.811H9.25171V46.6076H30.5511C32.0116 46.6076 33.4126 46.0253 34.4437 44.9906L44.8878 34.5186L68.435 10.9715L78.5782 0.801503C79.6554 -0.267168 81.3936 -0.267168 82.4708 0.801503L92.6129 10.9715L116.16 34.5186L126.605 44.9906C127.636 46.0253 129.036 46.6076 130.498 46.6076H151.797Z" fill="#F3D55B"/>
<path d="M79.4965 98.6921C73.4399 98.6921 68.5308 103.601 68.5308 109.657V139.213H90.461V109.657C90.461 103.601 85.5519 98.6921 79.4965 98.6921Z" fill="#E64C3C"/>
<path d="M68.5308 109.665H90.461V139.213H68.5308V109.665Z" fill="#CBB292"/>
<path d="M30.1532 60.3147H21.9301C20.4163 60.3147 19.1887 61.5411 19.1887 63.0549V84.9851C19.1887 86.4989 20.4163 87.7265 21.9301 87.7265H30.1532C31.6671 87.7265 32.8946 86.4989 32.8946 84.9851V63.0549C32.8946 61.5411 31.6671 60.3147 30.1532 60.3147Z" fill="#8697CB"/>
<path d="M54.8248 60.3147H46.6006C45.0867 60.3147 43.8604 61.5411 43.8604 63.0549V84.9851C43.8604 86.4989 45.0867 87.7265 46.6006 87.7265H54.8248C56.3387 87.7265 57.5663 86.4989 57.5663 84.9851V63.0549C57.5663 61.5411 56.3387 60.3147 54.8248 60.3147Z" fill="#90BAE1"/>
<path d="M30.1532 98.6921H21.9301C20.4163 98.6921 19.1887 99.9185 19.1887 101.434V123.363C19.1887 124.876 20.4163 126.104 21.9301 126.104H30.1532C31.6671 126.104 32.8946 124.876 32.8946 123.363V101.434C32.8946 99.9185 31.6671 98.6921 30.1532 98.6921Z" fill="#90BAE1"/>
<path d="M54.8248 98.6921H46.6006C45.0867 98.6921 43.8604 99.9185 43.8604 101.434V123.363C43.8604 124.876 45.0867 126.104 46.6006 126.104H54.8248C56.3387 126.104 57.5663 124.876 57.5663 123.363V101.434C57.5663 99.9185 56.3387 98.6921 54.8248 98.6921Z" fill="#8697CB"/>
<path d="M112.391 60.3147H104.168C102.653 60.3147 101.427 61.5411 101.427 63.0549V84.9851C101.427 86.4989 102.653 87.7265 104.168 87.7265H112.391C113.905 87.7265 115.132 86.4989 115.132 84.9851V63.0549C115.132 61.5411 113.905 60.3147 112.391 60.3147Z" fill="#90BAE1"/>
<path d="M137.063 60.3147H128.839C127.325 60.3147 126.097 61.5411 126.097 63.0549V84.9851C126.097 86.4989 127.325 87.7265 128.839 87.7265H137.063C138.577 87.7265 139.804 86.4989 139.804 84.9851V63.0549C139.804 61.5411 138.577 60.3147 137.063 60.3147Z" fill="#8697CB"/>
<path d="M112.391 98.6921H104.168C102.653 98.6921 101.427 99.9185 101.427 101.434V123.363C101.427 124.876 102.653 126.104 104.168 126.104H112.391C113.905 126.104 115.132 124.876 115.132 123.363V101.434C115.132 99.9185 113.905 98.6921 112.391 98.6921Z" fill="#8697CB"/>
<path d="M137.063 98.6921H128.839C127.325 98.6921 126.097 99.9185 126.097 101.434V123.363C126.097 124.876 127.325 126.104 128.839 126.104H137.063C138.577 126.104 139.804 124.876 139.804 123.363V101.434C139.804 99.9185 138.577 98.6921 137.063 98.6921Z" fill="#90BAE1"/>
<path d="M87.7195 65.7964H71.2722C69.7583 65.7964 68.5308 67.024 68.5308 68.5378V84.9852C68.5308 86.499 69.7583 87.7266 71.2722 87.7266H87.7195C89.2334 87.7266 90.461 86.499 90.461 84.9852V68.5378C90.461 67.024 89.2334 65.7964 87.7195 65.7964Z" fill="#8697CB"/>
<path d="M5.48288 137.07H153.51C155.024 137.07 156.252 138.296 156.252 139.811V149.405H2.74146V139.811C2.74146 138.296 3.96782 137.07 5.48288 137.07Z" fill="#D1D4D1"/>
<path d="M95.9437 38.3919C95.9437 47.4762 88.5795 54.8405 79.4964 54.8405C70.4121 54.8405 63.0491 47.4762 63.0491 38.3919C63.0491 29.3088 70.4121 21.9446 79.4964 21.9446C88.5795 21.9446 95.9437 29.3088 95.9437 38.3919Z" fill="white"/>
<path d="M84.9792 41.1259H79.4963C77.9825 41.1259 76.7549 39.8983 76.7549 38.3844V32.9016C76.7549 31.3877 77.9825 30.1602 79.4963 30.1602C81.0102 30.1602 82.2377 31.3877 82.2377 32.9016V35.643H84.9792C86.493 35.643 87.7194 36.8706 87.7194 38.3844C87.7194 39.8983 86.493 41.1259 84.9792 41.1259Z" fill="#2C2F38"/>
<path d="M19.1887 76.7621H32.8946V84.9851C32.8946 86.499 31.6671 87.7266 30.1532 87.7266H21.9301C20.4163 87.7266 19.1887 86.499 19.1887 84.9851V76.7621Z" fill="#464F5D"/>
<path d="M43.8604 76.7621H57.5663V84.9851C57.5663 86.499 56.3387 87.7266 54.8248 87.7266H46.6006C45.0867 87.7266 43.8604 86.499 43.8604 84.9851V76.7621Z" fill="#464F5D"/>
<path d="M19.1887 115.14H32.8946V123.363C32.8946 124.877 31.6671 126.104 30.1532 126.104H21.9301C20.4163 126.104 19.1887 124.877 19.1887 123.363V115.14Z" fill="#464F5D"/>
<path d="M43.8604 115.14H57.5663V123.363C57.5663 124.877 56.3387 126.104 54.8248 126.104H46.6006C45.0867 126.104 43.8604 124.877 43.8604 123.363V115.14Z" fill="#464F5D"/>
<path d="M101.427 76.7621H115.132V84.9851C115.132 86.499 113.905 87.7266 112.391 87.7266H104.168C102.653 87.7266 101.427 86.499 101.427 84.9851V76.7621Z" fill="#464F5D"/>
<path d="M126.097 76.7621H139.804V84.9851C139.804 86.499 138.577 87.7266 137.063 87.7266H128.839C127.325 87.7266 126.097 86.499 126.097 84.9851V76.7621Z" fill="#464F5D"/>
<path d="M101.427 115.14H115.132V123.363C115.132 124.877 113.905 126.104 112.391 126.104H104.168C102.653 126.104 101.427 124.877 101.427 123.363V115.14Z" fill="#464F5D"/>
<path d="M126.097 115.14H139.804V123.363C139.804 124.877 138.577 126.104 137.063 126.104H128.839C127.325 126.104 126.097 124.877 126.097 123.363V115.14Z" fill="#464F5D"/>
<path d="M84.9794 123.371C84.9794 124.885 83.7518 126.113 82.2379 126.113C80.724 126.113 79.4963 124.885 79.4963 123.371C79.4963 121.857 80.724 120.63 82.2379 120.63C83.7518 120.63 84.9794 121.857 84.9794 123.371Z" fill="#2C2F38"/>
<path d="M2.74143 148.034H156.252C157.765 148.034 158.993 149.262 158.993 150.776V156.259C158.993 157.772 157.765 159 156.252 159H2.74143C1.22758 159 0 157.772 0 156.259V150.776C0 149.262 1.22758 148.034 2.74143 148.034Z" fill="#A5A5A4"/>
<path d="M68.5308 76.7621H90.461V84.9851C90.461 86.499 89.2334 87.7266 87.7195 87.7266H71.2722C69.7583 87.7266 68.5308 86.499 68.5308 84.9851V76.7621Z" fill="#464F5D"/>
<path d="M24.6716 0.00695801H27.4118C30.4407 0.00695801 32.8946 2.4609 32.8946 5.4886V24.6774C32.8946 26.1912 31.6671 27.4188 30.1532 27.4188H21.9301C20.4163 27.4188 19.1887 26.1912 19.1887 24.6774V5.4886C19.1887 2.4609 21.6427 0.00695801 24.6716 0.00695801Z" fill="#A5A5A4"/>
</svg>
