<svg width="30" height="30" viewBox="0 0 30 30" fill="none" xmlns="http://www.w3.org/2000/svg">
<path d="M29.9887 15C29.9887 19.1352 28.5272 22.6699 25.5929 25.6042C22.6586 28.5385 19.1352 30 14.9887 30C10.8535 30 7.31873 28.5385 4.38444 25.6042C1.45015 22.6699 0 19.1352 0 15C0 10.8648 1.46148 7.33006 4.39577 4.39577C7.33006 1.46148 10.8535 0 15 0C19.1352 0 22.6699 1.46148 25.6042 4.39577C28.5385 7.33006 29.9887 10.8535 29.9887 15ZM23.4856 9.77719C23.4856 8.88217 23.1684 8.11178 22.5227 7.46601C21.8769 6.82024 21.1065 6.50302 20.2115 6.50302H9.78852C8.8935 6.50302 8.12311 6.82024 7.47734 7.46601C6.83157 8.11178 6.50302 8.88217 6.50302 9.77719V20.2001C6.50302 21.0952 6.82024 21.8656 7.46601 22.5113C8.11178 23.1571 8.88217 23.4743 9.77719 23.4743H20.2001C21.0952 23.4743 21.8656 23.1571 22.5113 22.5113C23.1571 21.8656 23.4743 21.0952 23.4743 20.2001V9.77719H23.4856ZM12.8814 17.1073C13.4705 17.6964 14.173 17.9909 14.9887 17.9909C15.8044 17.9909 16.5068 17.6964 17.0959 17.1073C17.685 16.5181 17.9796 15.8157 17.9796 15C17.9796 14.2636 17.787 13.6745 17.3905 13.244C16.8014 12.4282 16.0083 12.0091 14.9887 12.0091C13.969 12.0091 13.176 12.4169 12.5869 13.244C12.2017 13.6745 11.9977 14.2636 11.9977 15C12.0091 15.8157 12.3036 16.5181 12.8814 17.1073ZM21.5597 9.91314V9.87915C21.5597 9.07477 20.9139 8.429 20.1095 8.429C19.2938 8.429 18.648 9.09743 18.6594 9.90181V9.9358C18.6707 10.7289 19.3165 11.352 20.1095 11.352C20.9026 11.3633 21.5597 10.7175 21.5597 9.91314Z" fill="white"/>
</svg>
