<svg width="14" height="14" viewBox="0 0 14 14" fill="none" xmlns="http://www.w3.org/2000/svg">
<path fill-rule="evenodd" clip-rule="evenodd" d="M13.007 12.0975L10.1104 9.20088C10.0949 9.18544 10.0768 9.17478 10.0608 9.1604C10.6308 8.2959 10.9637 7.26095 10.9637 6.14823C10.9631 3.12114 8.5092 0.666656 5.48157 0.666656C2.45395 0.666656 0 3.12114 0 6.14823C0 9.17532 2.45395 11.6298 5.48157 11.6298C6.59483 11.6298 7.62925 11.2974 8.49375 10.7275C8.50813 10.7435 8.51878 10.7616 8.53423 10.777L11.4308 13.6736C11.866 14.1088 12.5712 14.1088 13.0064 13.6736C13.4416 13.2384 13.4416 12.5327 13.007 12.0975ZM5.48157 9.72981C3.50382 9.72981 1.89999 8.12652 1.89999 6.14823C1.89999 4.17047 3.50329 2.56664 5.48157 2.56664C7.45933 2.56664 9.06263 4.16994 9.06263 6.14823C9.06263 8.12652 7.45933 9.72981 5.48157 9.72981Z" fill="#662482"/>
</svg>
