<svg width="30" height="30" viewBox="0 0 30 30" fill="none" xmlns="http://www.w3.org/2000/svg">
<path d="M30 15C30 19.1352 28.5385 22.6699 25.6042 25.6042C22.6699 28.5385 19.1465 30 15 30C10.8648 30 7.33006 28.5385 4.39577 25.6042C1.46148 22.6699 0 19.1465 0 15C0 10.8648 1.46148 7.33006 4.39577 4.39577C7.33006 1.46148 10.8648 0 15.0113 0C19.1465 0 22.6813 1.46148 25.6156 4.39577C28.5385 7.31873 30 10.8535 30 15ZM23.6216 6.41239C23.463 6.27643 23.293 6.24245 23.0891 6.32175L4.46374 13.4705C4.22583 13.5498 4.11254 13.7198 4.11254 14.003C4.11254 14.2749 4.22583 14.4562 4.46374 14.5355L8.97281 16.1782L10.7855 21.8542C10.8195 22.0128 10.9328 22.1148 11.1027 22.1714C11.2727 22.2281 11.4426 22.2054 11.6012 22.0808L14.1163 20.0302C14.4335 19.7923 14.7394 19.7923 15.0566 20.0302L19.6224 23.3157C19.781 23.429 19.9396 23.4517 20.1208 23.3724C20.3021 23.293 20.4041 23.1571 20.4381 22.9645L23.7915 6.91088C23.8369 6.71828 23.7689 6.54834 23.6216 6.41239ZM19.543 9.86782C19.4864 9.81118 19.4184 9.79985 19.3391 9.84516L10.4343 15.2946C10.0831 15.5325 9.96979 15.861 10.0831 16.2915L11.0234 19.6903C11.0574 19.8036 11.1367 19.8603 11.2613 19.8376C11.3746 19.815 11.4539 19.747 11.4992 19.6337L11.7372 17.821C11.7711 17.4698 11.9298 17.1526 12.2017 16.8807L19.5204 10.0831C19.5997 9.99245 19.611 9.92447 19.543 9.86782Z" fill="white"/>
</svg>
