<svg width="30" height="30" viewBox="0 0 30 30" fill="none" xmlns="http://www.w3.org/2000/svg">
<path d="M30 15C30 19.1352 28.5385 22.6699 25.6042 25.6042C22.6699 28.5385 19.1465 30 15 30C10.8648 30 7.33006 28.5385 4.39577 25.6042C1.46148 22.6699 0 19.1465 0 15C0 10.8648 1.46148 7.33006 4.39577 4.39577C7.33006 1.46148 10.8648 0 15 0C19.1352 0 22.6699 1.46148 25.6042 4.39577C28.5385 7.33006 30 10.8535 30 15ZM24.7885 9.6639C23.9728 10.0151 23.2251 10.2077 22.568 10.253C23.429 9.78852 23.9955 9.0861 24.2674 8.14577C23.565 8.57628 22.7606 8.88217 21.8656 9.0861C21.0838 8.30438 20.1435 7.91918 19.0559 7.91918C18.0023 7.91918 17.1072 8.29305 16.3595 9.02946C15.6231 9.76586 15.2492 10.6722 15.2492 11.7258C15.2492 12.111 15.2719 12.4056 15.3059 12.6095C12.0997 12.4169 9.48262 11.0687 7.45468 8.56495C7.10347 9.15408 6.9222 9.79985 6.9222 10.5023C6.9222 11.9071 7.48866 12.9834 8.62159 13.7198C8.03247 13.6858 7.45468 13.5272 6.86556 13.2553C6.86556 14.1956 7.16012 15 7.74924 15.6911C8.33836 16.3708 9.07477 16.8127 9.96978 17.0053C9.61857 17.1186 9.26737 17.1866 8.91616 17.1866C8.75755 17.1866 8.53097 17.1526 8.21375 17.0733C8.45166 17.855 8.8935 18.4894 9.56193 18.9766C10.2304 19.4637 10.9668 19.7243 11.7825 19.7696C10.2983 20.8686 8.71223 21.4124 7.0355 21.4124C6.9222 21.4124 6.75226 21.4011 6.537 21.3784C6.32175 21.3557 6.17447 21.3444 6.09516 21.3444C7.93051 22.4773 9.87915 23.0438 11.9524 23.0438C15.2719 23.0438 17.9116 21.9222 19.8943 19.679C21.8656 17.4358 22.8512 14.9207 22.8512 12.1563V11.6918C23.5536 11.148 24.1994 10.4796 24.7885 9.6639Z" fill="white"/>
</svg>
