<svg width="27" height="28" viewBox="0 0 27 28" fill="none" xmlns="http://www.w3.org/2000/svg">
<path d="M22.7615 4.57182C20.2431 2.05335 16.8948 0.666687 13.3331 0.666687C9.77189 0.666687 6.4236 2.05335 3.90513 4.57182C1.38666 7.09029 0 10.4386 0 13.9998C0 17.1445 1.08053 20.1224 3.06754 22.5098C3.11468 22.5663 3.16181 22.6222 3.20999 22.6782C3.26541 22.7424 3.32135 22.8066 3.37782 22.8698C3.43479 22.9335 3.49177 22.9962 3.54979 23.0589C3.6078 23.1216 3.66634 23.1832 3.72591 23.2449C3.75491 23.2754 3.78496 23.3065 3.815 23.3371C3.84453 23.3676 3.87509 23.3977 3.90513 23.4282C3.91601 23.4396 3.92689 23.45 3.93776 23.4603C3.959 23.4816 3.98024 23.5028 4.00148 23.523C4.03359 23.5546 4.06571 23.5857 4.09782 23.6168C4.13046 23.6479 4.16257 23.6789 4.1952 23.7095C4.22784 23.7401 4.26047 23.7706 4.29362 23.8012C4.35889 23.8618 4.42519 23.9219 4.49201 23.9809C4.52516 24.0104 4.55883 24.04 4.5925 24.069C4.62617 24.098 4.65984 24.127 4.69351 24.156C7.10268 26.2129 10.1319 27.3334 13.3331 27.3334C13.4227 27.3334 13.5123 27.3323 13.6014 27.3302C16.7042 27.2696 19.6318 26.1549 21.9737 24.156C22.2327 23.9353 22.4849 23.7033 22.7289 23.4603C22.7398 23.45 22.7507 23.4391 22.7615 23.4282C22.8185 23.3712 22.8745 23.3143 22.9299 23.2563C22.9366 23.2495 22.9434 23.2433 22.949 23.2366C23.0029 23.1811 23.0558 23.1252 23.1081 23.0687C23.1112 23.0656 23.1143 23.062 23.1169 23.0589C23.1707 23.0009 23.2241 22.9429 23.2769 22.8838C23.2842 22.8755 23.292 22.8667 23.2992 22.8584C23.3463 22.8056 23.3935 22.7522 23.4396 22.6984C23.4453 22.6922 23.451 22.6854 23.4567 22.6787C23.5049 22.6227 23.552 22.5668 23.5991 22.5103C25.5856 20.1224 26.6667 17.1445 26.6667 13.9998C26.6667 10.4386 25.28 7.09029 22.7615 4.57182ZM23.0065 20.8637C22.9765 20.9061 22.9459 20.9486 22.9149 20.9906C22.7103 21.2708 22.4932 21.5412 22.2653 21.8023C22.2192 21.8551 22.1715 21.9064 22.1244 21.9582C22.083 21.8188 22.0389 21.68 21.9913 21.5433C21.5432 20.2561 20.8072 19.0761 19.8152 18.0841C18.8165 17.0859 17.6283 16.3468 16.3317 15.8997C17.7205 14.9435 18.6326 13.3429 18.6326 11.5326C18.6326 8.61007 16.2551 6.23353 13.3336 6.23353C10.4116 6.23353 8.03455 8.61059 8.03455 11.5326C8.03455 13.3424 8.94673 14.943 10.3355 15.8997C9.03893 16.3473 7.85066 17.0859 6.85198 18.0841C5.86003 19.0761 5.12293 20.2555 4.67538 21.5427C4.62721 21.68 4.58318 21.8188 4.54226 21.9582C4.49512 21.9064 4.44747 21.8551 4.40137 21.8023C4.17345 21.5412 3.95641 21.2708 3.7518 20.9906C3.72073 20.9486 3.69016 20.9066 3.66012 20.8642C2.28019 18.9248 1.46799 16.555 1.46799 13.9998C1.46799 7.45754 6.79085 2.13467 13.3331 2.13467C19.8758 2.13467 25.1987 7.45754 25.1987 13.9998C25.1987 16.555 24.3865 18.9243 23.0065 20.8637Z" fill="#662482"/>
</svg>
