<svg width="30" height="31" viewBox="0 0 30 31" fill="none" xmlns="http://www.w3.org/2000/svg">
<path d="M30 15.5C30 19.654 28.5432 23.1935 25.6184 26.1184C22.6935 29.0432 19.154 30.5 15 30.5C10.846 30.5 7.30652 29.0432 4.38164 26.1184C1.45675 23.1935 0 19.654 0 15.5C0 11.346 1.45675 7.80652 4.38164 4.88164C7.30652 1.95675 10.846 0.5 15 0.5C19.154 0.5 22.6935 1.95675 25.6184 4.88164C28.5432 7.79514 30 11.3346 30 15.5ZM26.1191 21.4067C26.2329 21.1563 26.2215 20.8718 26.0622 20.5531C25.8232 20.1662 25.5501 19.7678 25.2428 19.3809C24.8103 18.8687 24.0819 18.1404 23.069 17.2071C22.5228 16.6608 22.4659 16.069 22.8869 15.4431C23.1601 15.0561 23.7747 14.2481 24.7079 13.0303C25.5273 11.7329 26.0053 10.9135 26.1191 10.5607C26.2784 10.0486 26.085 9.74127 25.5273 9.61608H25.2314H21.7033C21.2709 9.61608 20.9977 9.79818 20.8839 10.151L20.1783 11.7443C19.393 13.2352 18.7102 14.2936 18.1184 14.9196C17.7314 15.1927 17.4696 15.3065 17.3558 15.2724C17.003 15.113 16.8209 14.7602 16.8209 14.214V10.1396C16.7868 9.59332 16.525 9.2519 16.0584 9.13809H12.3483C11.9954 9.13809 11.6768 9.32018 11.4036 9.67299C11.2102 9.86646 11.2443 9.99165 11.5175 10.0258C12.1093 10.1396 12.4393 10.5152 12.519 11.1411C12.6783 12.0402 12.7011 13.019 12.5759 14.0888C12.5759 14.4074 12.519 14.6806 12.3938 14.9082C12.2003 15.3407 11.9272 15.4431 11.5744 15.2041C11.3354 15.0448 11.0622 14.7375 10.7549 14.2595C9.93551 13.1214 9.20713 11.7898 8.58118 10.2534C8.38771 9.82094 8.09181 9.6047 7.69347 9.6047H4.51821C3.84674 9.6047 3.65326 9.90061 3.9264 10.4924C5.33763 13.5539 6.71472 16.0008 8.04628 17.8445C9.1047 19.2557 10.1404 20.2344 11.1646 20.7921C12.4621 21.5774 14.0326 21.9302 15.8763 21.8505C16.5478 21.8164 16.8778 21.4636 16.8778 20.7921C16.9575 20.0865 17.0713 19.5971 17.2306 19.324C17.4696 18.8118 17.8338 18.7208 18.346 19.0281C18.3801 19.0622 18.4712 19.1419 18.6077 19.2671C18.7443 19.3809 18.8467 19.4833 18.9264 19.563C19.4727 20.1889 19.9052 20.6669 20.2238 20.9742C20.8156 21.6457 21.4985 21.9188 22.2838 21.7936H25.5159C25.8005 21.7936 25.9939 21.6684 26.1191 21.4067Z" fill="white"/>
</svg>
