<svg width="114" height="35" viewBox="0 0 114 35" fill="none" xmlns="http://www.w3.org/2000/svg">
<path d="M38.1372 0.580261L4.22977 0.584221C2.34849 0.584221 1.17218 2.58788 2.11484 4.1916L3.25086 6.12398C3.92764 7.27628 5.42219 7.6683 6.59447 7.00305L10.7236 4.65885C11.9402 3.96985 13.5798 4.34603 14.2284 5.57357C14.5225 6.12794 14.5789 6.74171 14.4258 7.304C14.2646 7.89797 13.8658 8.42858 13.2817 8.7612L9.03974 11.1688L6.92078 12.3686L4.80181 13.5684C4.21769 13.901 3.8229 14.4396 3.65773 15.0335C3.4966 15.6275 3.56508 16.2848 3.90347 16.8629C4.57622 18.0113 6.07883 18.4033 7.25111 17.7381L9.37007 16.5382L11.489 15.3384L13.4106 14.2495C16.7784 12.3369 21.1734 13.1605 23.3528 16.3284C24.6097 18.1538 24.8997 20.3119 24.376 22.2562C23.8846 24.0381 22.7042 25.6418 20.9519 26.6357L18.8289 27.8395C17.6566 28.5047 17.2578 29.9738 17.9346 31.1261L19.0706 33.0585C20.0092 34.6583 22.3658 34.6622 23.3045 33.0546L40.2562 4.1916C41.1988 2.58788 40.0225 0.584221 38.1372 0.580261Z" fill="#662482"/>
<path d="M16.3797 23.6699L18.5027 22.4661C19.0828 22.1375 19.4816 21.6069 19.6427 21.0129C19.8038 20.4189 19.7354 19.7616 19.397 19.1835C18.7202 18.0312 17.2256 17.6431 16.0574 18.3044L13.9344 19.5082L11.8154 20.708L9.69646 21.9078C9.11234 22.2404 8.71352 22.771 8.55238 23.365C8.39125 23.959 8.45973 24.6163 8.79812 25.1944C9.4749 26.3467 10.9735 26.7348 12.1458 26.0695L14.2647 24.8697L16.3797 23.6699Z" fill="#662482"/>
<path d="M2.44527 31.2052C3.79576 31.2052 4.89054 30.1291 4.89054 28.8016C4.89054 27.4741 3.79576 26.398 2.44527 26.398C1.09479 26.398 0 27.4741 0 28.8016C0 30.1291 1.09479 31.2052 2.44527 31.2052Z" fill="#662482"/>
<path d="M44.8807 18.9096C44.357 18.4146 43.66 18.1612 42.7818 18.1612C42.3548 18.1612 42.0124 18.1929 41.7667 18.2443V16.8465H45.1143V14.9656H39.7202V23.7564H39.8894C39.974 23.7683 40.0908 23.7683 40.2439 23.7683C40.4051 23.7801 40.5662 23.7801 40.7152 23.7801C41.2591 23.8118 41.7546 23.8237 42.2138 23.8237C43.3055 23.8237 44.1596 23.5623 44.7719 23.0436C45.3802 22.5288 45.6823 21.8121 45.6823 20.8776C45.6823 20.0579 45.4124 19.4046 44.8807 18.9096ZM42.524 21.9388C42.4273 21.9388 42.1695 21.919 41.7626 21.8755V20.1332C42.0607 20.0817 42.3508 20.05 42.6167 20.05C42.9591 20.05 43.2169 20.145 43.378 20.3232C43.5513 20.5014 43.6359 20.743 43.6359 21.04C43.6399 21.6339 43.2733 21.9388 42.524 21.9388Z" fill="#662482"/>
<path d="M51.1048 14.8191L46.4519 23.7603H48.7078L51.0524 18.7234L53.4936 23.7603H55.8583L51.1048 14.8191Z" fill="#662482"/>
<path d="M62.3077 14.9656V18.3315H59.0446V14.9656H57.0022V23.7564H59.0446V20.2124H62.3077V23.7564H64.3501V14.9656H62.3077Z" fill="#662482"/>
<path d="M72.2903 21.0995L70.7072 19.0285L74.0669 14.9697H71.6176L68.697 18.7989V14.9697H66.6545V23.7605H68.697V19.575L70.5702 22.1528C71.0939 22.8774 71.6418 23.3724 72.1977 23.6456C72.7456 23.907 73.374 23.9505 74.083 23.7605V22.0023C73.4707 22.1607 72.8704 21.8677 72.2903 21.0995Z" fill="#662482"/>
<path d="M80.0934 19.6777V14.9656H78.051V23.9068L83.7956 19.1748V23.7603H85.838V14.8191L80.0934 19.6777Z" fill="#662482"/>
<path d="M95.9375 21.8754L92.1065 14.8191L88.36 21.8754H87.1072V25.261H89.0207V23.7563H95.3333V25.261H97.2468V21.8754H95.9375ZM90.6401 21.8754L92.0541 18.866L93.5406 21.8754H90.6401Z" fill="#662482"/>
<path d="M100.582 21.8756V20.2759H103.451V18.395H100.582V16.8506H103.833V14.9697H98.5359V23.7605H103.962V21.8756H100.582Z" fill="#662482"/>
<path d="M107.922 19.6777V14.9656H105.879V23.9068L111.624 19.1748V23.7603H113.666V14.8191L107.922 19.6777Z" fill="#662482"/>
<path d="M111.257 12.7047H108.792C108.655 12.7047 108.571 12.8512 108.639 12.966L109.872 15.0647C109.94 15.1795 110.109 15.1795 110.178 15.0647L111.411 12.966C111.479 12.8512 111.394 12.7047 111.257 12.7047Z" fill="#662482"/>
<path d="M53.6104 20.6123H48.6997V22.4971H53.6104V20.6123Z" fill="#662482"/>
</svg>
