<svg width="72" height="60" viewBox="0 0 72 60" fill="none" xmlns="http://www.w3.org/2000/svg">
<path d="M67.1038 0L7.44258 0.00696739C4.1324 0.00696739 2.06265 3.53246 3.72128 6.35426L5.72015 9.75434C6.91096 11.7819 9.54068 12.4716 11.6033 11.3011L18.8687 7.17641C21.0094 5.96408 23.8942 6.62598 25.0354 8.78587C25.5529 9.76131 25.6521 10.8413 25.3828 11.8306C25.0992 12.8757 24.3975 13.8094 23.3697 14.3946L15.9059 18.6308L12.1775 20.7419L8.4491 22.853C7.42131 23.4383 6.72667 24.3859 6.43606 25.431C6.15253 26.4761 6.27303 27.6327 6.86844 28.6499C8.05216 30.6704 10.6961 31.3602 12.7587 30.1897L16.4871 28.0786L20.2155 25.9675L23.5965 24.0514C29.5223 20.6862 37.2555 22.1354 41.0902 27.7093C43.3017 30.9213 43.812 34.7185 42.8906 38.1395C42.0258 41.2748 39.949 44.0966 36.8656 45.8454L33.1301 47.9635C31.0675 49.134 30.3657 51.7189 31.5566 53.7464L33.5554 57.1465C35.207 59.9613 39.3536 59.9683 41.0051 57.1395L70.8322 6.35426C72.4908 3.53246 70.4211 0.00696739 67.1038 0Z" fill="white"/>
<path d="M28.8206 40.6269L32.556 38.5088C33.5767 37.9305 34.2785 36.9969 34.562 35.9518C34.8455 34.9067 34.725 33.7501 34.1296 32.7329C32.9388 30.7054 30.3091 30.0226 28.2535 31.1861L24.518 33.3042L20.7896 35.4153L17.0613 37.5264C16.0335 38.1117 15.3317 39.0453 15.0482 40.0904C14.7647 41.1355 14.8852 42.2921 15.4806 43.3094C16.6714 45.3369 19.3082 46.0197 21.3709 44.8492L25.0993 42.738L28.8206 40.6269Z" fill="white"/>
<path d="M4.30253 53.8856C6.67875 53.8856 8.60506 51.9921 8.60506 49.6564C8.60506 47.3207 6.67875 45.4272 4.30253 45.4272C1.92631 45.4272 0 47.3207 0 49.6564C0 51.9921 1.92631 53.8856 4.30253 53.8856Z" fill="white"/>
</svg>
