<svg width="200" height="60" viewBox="0 0 200 60" fill="none" xmlns="http://www.w3.org/2000/svg">
<path d="M67.1038 0L7.44258 0.00696739C4.1324 0.00696739 2.06265 3.53246 3.72128 6.35426L5.72015 9.75434C6.91096 11.7819 9.54068 12.4716 11.6033 11.3011L18.8687 7.17641C21.0094 5.96408 23.8942 6.62598 25.0354 8.78587C25.5529 9.76131 25.6521 10.8413 25.3828 11.8306C25.0992 12.8757 24.3975 13.8094 23.3697 14.3946L15.9059 18.6308L12.1775 20.7419L8.4491 22.853C7.42131 23.4383 6.72667 24.3859 6.43606 25.431C6.15253 26.4761 6.27303 27.6327 6.86844 28.6499C8.05216 30.6704 10.6961 31.3602 12.7587 30.1897L16.4871 28.0786L20.2155 25.9675L23.5965 24.0514C29.5223 20.6862 37.2555 22.1354 41.0902 27.7093C43.3017 30.9213 43.812 34.7185 42.8906 38.1395C42.0258 41.2748 39.949 44.0966 36.8656 45.8454L33.1301 47.9635C31.0675 49.134 30.3657 51.7189 31.5566 53.7464L33.5554 57.1465C35.207 59.9613 39.3536 59.9683 41.0051 57.1395L70.8322 6.35426C72.4908 3.53246 70.4211 0.00696739 67.1038 0Z" fill="white"/>
<path d="M28.8206 40.6269L32.556 38.5088C33.5767 37.9305 34.2785 36.9969 34.562 35.9518C34.8455 34.9067 34.725 33.7501 34.1296 32.7329C32.9388 30.7054 30.3091 30.0226 28.2535 31.1861L24.518 33.3042L20.7896 35.4153L17.0613 37.5264C16.0335 38.1117 15.3317 39.0453 15.0482 40.0904C14.7647 41.1355 14.8852 42.2921 15.4806 43.3094C16.6714 45.3369 19.3082 46.0197 21.3709 44.8492L25.0993 42.738L28.8206 40.6269Z" fill="white"/>
<path d="M4.30253 53.8856C6.67875 53.8856 8.60506 51.9921 8.60506 49.6564C8.60506 47.3207 6.67875 45.4272 4.30253 45.4272C1.92631 45.4272 0 47.3207 0 49.6564C0 51.9921 1.92631 53.8856 4.30253 53.8856Z" fill="white"/>
<path d="M78.9693 32.2511C78.0478 31.3801 76.8216 30.9342 75.2764 30.9342C74.525 30.9342 73.9225 30.99 73.4901 31.0805V28.6211H79.3804V25.3116H69.8893V40.7791H70.187C70.3359 40.8 70.5415 40.8 70.8108 40.8C71.0943 40.8209 71.3779 40.8209 71.6401 40.8209C72.597 40.8767 73.4689 40.8976 74.2769 40.8976C76.1978 40.8976 77.7005 40.4377 78.7779 39.525C79.8482 38.6192 80.3799 37.3581 80.3799 35.7138C80.3799 34.2716 79.905 33.122 78.9693 32.2511ZM74.8227 37.5811C74.6526 37.5811 74.199 37.5463 73.4831 37.4696V34.404C74.0076 34.3134 74.5179 34.2577 74.9858 34.2577C75.5882 34.2577 76.0419 34.4249 76.3254 34.7384C76.6302 35.0519 76.7791 35.477 76.7791 35.9995C76.7861 37.0446 76.1411 37.5811 74.8227 37.5811Z" fill="white"/>
<path d="M89.9205 25.0536L81.7336 40.786H85.703L89.8284 31.9235L94.1238 40.786H98.2846L89.9205 25.0536Z" fill="white"/>
<path d="M109.633 25.3116V31.2338H103.891V25.3116H100.297V40.7792H103.891V34.5433H109.633V40.7792H113.226V25.3116H109.633Z" fill="white"/>
<path d="M127.197 36.1042L124.412 32.4602L130.323 25.3187H126.013L120.875 32.0561V25.3187H117.281V40.7863H120.875V33.4217L124.171 37.9575C125.092 39.2325 126.056 40.1035 127.034 40.5842C127.998 41.0441 129.104 41.1207 130.351 40.7863V37.6927C129.274 37.9714 128.218 37.4559 127.197 36.1042Z" fill="white"/>
<path d="M140.927 33.6026V25.3114H137.333V41.0438L147.441 32.7178V40.786H151.035V25.0536L140.927 33.6026Z" fill="white"/>
<path d="M168.805 37.4695L162.064 25.0536L155.472 37.4695H153.268V43.4266H156.635V40.779H167.742V43.4266H171.109V37.4695H168.805ZM159.484 37.4695L161.972 32.1743L164.588 37.4695H159.484Z" fill="white"/>
<path d="M176.978 37.4698V34.655H182.024V31.3455H176.978V28.6282H182.698V25.3187H173.377V40.7863H182.925V37.4698H176.978Z" fill="white"/>
<path d="M189.892 33.6026V25.3114H186.299V41.0438L196.406 32.7178V40.786H200V25.0536L189.892 33.6026Z" fill="white"/>
<path d="M195.761 21.3333H191.423C191.182 21.3333 191.034 21.5911 191.154 21.7932L193.323 25.4859C193.443 25.688 193.741 25.688 193.862 25.4859L196.031 21.7932C196.151 21.5911 196.002 21.3333 195.761 21.3333Z" fill="white"/>
<path d="M94.3294 35.247H85.6889V38.5634H94.3294V35.247Z" fill="white"/>
</svg>
